<mxfile host="app.diagrams.net" modified="2021-01-29T05:32:54.581Z" agent="5.0 (Windows)" etag="QydxZNQsBUHB6b6QLOjJ" version="14.2.7" type="github">
  <diagram id="Hti3g_JA2gQ-FCei74Bm" name="Page-1">
    <mxGraphModel dx="1038" dy="547" grid="1" gridSize="10" guides="1" tooltips="1" connect="1" arrows="1" fold="1" page="1" pageScale="1" pageWidth="1169" pageHeight="827" math="0" shadow="0">
      <root>
        <mxCell id="0" />
        <mxCell id="1" parent="0" />
        <mxCell id="CFJs6edvpneOBIYGKQMz-1" value="Seed collection, processing and dispatch" style="swimlane;" vertex="1" parent="1">
          <mxGeometry x="10" y="10" width="1150" height="810" as="geometry" />
        </mxCell>
      </root>
    </mxGraphModel>
  </diagram>
</mxfile>
